<svg xmlns="http://www.w3.org/2000/svg" xmlns:xlink="http://www.w3.org/1999/xlink" viewBox="0 0 46 76" fill="#fff" fill-rule="evenodd" stroke="#000" stroke-linecap="round" stroke-linejoin="round"><style><![CDATA[.B{fill:#59595b}.C{fill:url(#A)}.D{fill:url(#B)}.E{fill:url(#F)}]]></style><use xlink:href="#M" x=".5" y=".5"/><defs><linearGradient id="A" x1="-0.03%" y1="50.00%" x2="99.97%" y2="50.00%"><stop offset="0%" stop-color="#c3c5c7"/><stop offset="28.7%" stop-color="#e1e2e3"/><stop offset="100%" stop-color="#8e8e8e"/></linearGradient><radialGradient id="B" cx="50%" cy="50%" r="50%" fx="50%" fy="50%"><stop offset="0%" stop-color="#c3c5c7"/><stop offset="28.7%" stop-color="#e1e2e3"/><stop offset="100%" stop-color="#8e8e8e"/></radialGradient><radialGradient id="C" cx="50%" cy="50%" r="50%" fx="66%" fy="66%"><stop offset="0%" stop-color="#c3c5c7"/><stop offset="35.4%" stop-color="#bdbfc1"/><stop offset="82.9%" stop-color="#adaeb1"/><stop offset="100%" stop-color="#a3a5a8"/></radialGradient><linearGradient id="D" x1="0.27%" y1="50.00%" x2="100.27%" y2="50.00%"><stop offset="0%" stop-color="#c3c5c7"/><stop offset="100%" stop-color="#8e8e8e"/></linearGradient><linearGradient id="E" x1="-0.02%" y1="50.00%" x2="100.08%" y2="50.00%"><stop offset="0%" stop-color="#c3c5c7"/><stop offset="100%" stop-color="#8e8e8e"/></linearGradient><linearGradient id="F" x1="-0.03%" y1="50.00%" x2="100.08%" y2="50.00%"><stop offset="0%" stop-color="#c3c5c7"/><stop offset="28.7%" stop-color="#e1e2e3"/><stop offset="100%" stop-color="#8e8e8e"/></linearGradient><linearGradient id="G" x1="-0.02%" y1="50.00%" x2="99.98%" y2="50.00%"><stop offset="0%" stop-color="#c3c5c7"/><stop offset="100%" stop-color="#8e8e8e"/></linearGradient><linearGradient id="H" x1="42.77%" y1="33.80%" x2="52.30%" y2="59.70%"><stop offset="0%" stop-color="#c3c5c7"/><stop offset="100%" stop-color="#8e8e8e"/></linearGradient><radialGradient id="I" cx="50%" cy="50%" r="50%" fx="24%" fy="52%"><stop offset="0%" stop-color="#c3c5c7"/><stop offset="100%" stop-color="#8e8e8e"/></radialGradient><radialGradient id="J" cx="50%" cy="50%" r="50%" fx="75%" fy="64%"><stop offset="0%" stop-color="#c3c5c7"/><stop offset="35.4%" stop-color="#bdbfc1"/><stop offset="82.9%" stop-color="#adaeb1"/><stop offset="100%" stop-color="#a3a5a8"/></radialGradient><linearGradient id="K" x1="49.51%" y1="47.04%" x2="52.30%" y2="54.83%"><stop offset="0%" stop-color="#b3b4b6"/><stop offset="100%" stop-color="#8e8e8e"/></linearGradient><radialGradient id="L" cx="50%" cy="50%" r="50%" fx="51%" fy="21%"><stop offset="10.1%" stop-color="#e1e2e3"/><stop offset="94.4%" stop-color="#c3c5c7"/></radialGradient></defs><symbol id="M" overflow="visible"><g stroke="none" fill-rule="nonzero"><path d="M12.208 8.31l6.855 4.38-.825.675-6.075-3.615z" class="C"/><path d="M18.238 13.365h0l-6.09-3.615h0l.045-1.44h0l6.855 4.38h0l-.81.675zM12.163 9.75l6.075 3.6.825-.675-6.855-4.365-.045 1.44z" class="B"/><path d="M43.888 2.385C42.358.42 37.288-2.07 33.478 3c-3.45 4.83.72 8.79 2.07 9.09 7.32 1.26 9.555-7.815 8.34-9.705h0z" class="D"/><path d="M36.913 12.195c-.435 0-.9-.045-1.365-.12-.315-.075-.885-.375-1.515-1.005-.465-.465-1.095-1.23-1.515-2.295-.33-.87-.45-1.755-.33-2.655.135-1.05.555-2.1 1.29-3.135.78-1.035 1.665-1.815 2.61-2.31.84-.435 1.74-.675 2.67-.675h.045c1.02 0 2.07.27 3.045.765.825.42 1.575 1.02 2.04 1.605h0 0c.33.525.405 1.56.195 2.79-.24 1.365-.78 2.73-1.53 3.855a8.04 8.04 0 0 1-1.2 1.425 6.83 6.83 0 0 1-1.56 1.095c-.885.45-1.845.66-2.88.66zM38.803 0h-.045c-.93 0-1.83.24-2.67.675-.96.495-1.83 1.275-2.61 2.31-.735 1.02-1.17 2.07-1.29 3.12a5.56 5.56 0 0 0 .33 2.655c.405 1.065 1.05 1.83 1.515 2.295.645.63 1.2.93 1.515 1.005 1.56.27 2.985.09 4.23-.54a6.83 6.83 0 0 0 1.56-1.095A8.04 8.04 0 0 0 42.538 9c.75-1.125 1.29-2.49 1.53-3.855.105-.6.135-1.17.105-1.65s-.135-.87-.3-1.125h0c-.465-.6-1.215-1.185-2.04-1.605C40.873.27 39.823 0 38.803 0z" class="B"/><path d="M42.673 2.145c1.8 1.53 1.62 4.875-.405 7.485s-5.145 3.48-6.96 1.95-1.62-4.875.405-7.485c2.04-2.61 5.16-3.48 6.96-1.95h0z" fill="url(#C)"/><path d="M37.468 12.33c-.825 0-1.575-.255-2.16-.75a3.36 3.36 0 0 1-.99-1.455c-.21-.57-.285-1.2-.255-1.89s.195-1.395.465-2.085c.285-.72.675-1.41 1.17-2.055a7.92 7.92 0 0 1 2.085-1.875c.75-.45 1.53-.72 2.28-.81 1.005-.105 1.905.15 2.595.735h0 0a3.36 3.36 0 0 1 .99 1.455c.21.57.285 1.2.255 1.89-.047.715-.204 1.418-.465 2.085-.285.72-.675 1.41-1.17 2.055a7.92 7.92 0 0 1-2.085 1.875c-.75.45-1.53.72-2.28.81l-.435.015zm3.06-10.935c-.15 0-.285.015-.435.03-.75.075-1.53.36-2.28.81a7.92 7.92 0 0 0-2.085 1.875c-.495.63-.9 1.32-1.17 2.055-.27.705-.435 1.41-.465 2.085-.045.69.045 1.32.255 1.89.21.585.54 1.08.99 1.44.66.57 1.56.825 2.565.72.75-.075 1.53-.36 2.28-.81a7.92 7.92 0 0 0 2.085-1.875c.495-.63.885-1.32 1.17-2.055.27-.705.435-1.41.465-2.085.045-.69-.045-1.32-.255-1.89-.21-.585-.54-1.08-.99-1.44h0 0c-.57-.495-1.305-.75-2.13-.75z" class="B"/><path d="M26.473 13.305l6.9-3.81s.315.045.51.315c.21.255-.105.78-.105.78l-6.75 4.125h-.57v-1.41h.015z" fill="url(#D)"/><path d="M27.043 14.7h-.57v-1.395h0l6.9-3.81h0s.315.06.51.315c.21.255-.105.765-.105.78h0l-6.735 4.11zm-.555 0h.57l6.75-4.125c.015-.015.3-.525.105-.765s-.495-.3-.51-.3l-6.9 3.81v1.38h-.015z" class="B"/><path d="M34.123 9.225l9.615-5.46.15.72c.03.135.045.615.045.615l-9.51 5.25s-.18-.42-.21-.6l-.09-.525h0z" fill="url(#E)"/><path d="M34.423 10.365h0s-.18-.42-.21-.6l-.105-.54h0 0l9.63-5.46h0l.15.72c.03.135.045.615.045.615h0 0l-9.51 5.265zm-.3-1.14c0 .03.075.36.105.525s.195.555.21.6l9.51-5.25c0-.03-.015-.48-.045-.615l-.15-.72-9.63 5.46z" class="B"/><path d="M18.553 73.08c0 1.05 1.815 1.92 4.035 1.92 2.235 0 4.035-.855 4.035-1.92v-2.97c0 1.065-1.815 1.92-4.035 1.92-2.235 0-4.035-.855-4.035-1.92v2.97z" class="E"/><path d="M22.588 75c-1.08 0-2.1-.195-2.865-.555s-1.185-.84-1.185-1.35v-2.97h0c0 .51.42.99 1.185 1.35s1.77.555 2.85.555 2.085-.195 2.85-.555 1.185-.84 1.185-1.35h0v2.97c0 .51-.42.99-1.185 1.35-.75.36-1.755.555-2.835.555zm-4.035-4.785v2.865c0 .51.42.99 1.185 1.35s1.77.555 2.85.555c2.22 0 4.035-.855 4.035-1.905v-2.865c-.045.48-.465.915-1.185 1.26-.765.36-1.785.555-2.85.555-1.08 0-2.1-.195-2.865-.555-.705-.33-1.125-.78-1.17-1.26z" class="B"/><path d="M26.623 70.126c0 1.065-1.815 1.92-4.035 1.92-2.235 0-4.035-.855-4.035-1.92 0 0-.015-.63.945-.93.96-.285 5.22-.15 6.105.06.885.195 1.02.87 1.02.87h0z" class="E"/><path d="M22.588 72.045c-1.08 0-2.1-.195-2.865-.555s-1.185-.84-1.185-1.35c0 0 0-.165.12-.36.105-.18.345-.42.84-.57.42-.12 1.575-.18 3.075-.15l3.03.21c.465.105.72.33.84.51a.93.93 0 0 1 .18.36h0 0c0 .51-.42.99-1.185 1.35-.765.345-1.77.555-2.85.555zm-.75-3.015c-1.14 0-1.995.06-2.34.165-.495.15-.735.39-.84.57-.12.195-.12.345-.12.345 0 .51.42.99 1.185 1.35s1.77.555 2.85.555 2.085-.195 2.85-.555 1.185-.84 1.185-1.35h0s-.03-.165-.18-.36c-.135-.18-.39-.405-.84-.51-.435-.09-1.695-.18-3.015-.21h-.735z" class="B"/><path d="M19.033 69.84c0 .84 1.59 1.515 3.555 1.515s3.555-.675 3.555-1.515V67.5c0 .84-1.59 1.515-3.555 1.515s-3.555-.675-3.555-1.515v2.34z" class="C"/><path d="M22.588 71.355c-.945 0-1.845-.15-2.52-.435s-1.05-.66-1.05-1.065V67.5h0c0 .825 1.59 1.515 3.555 1.515s3.555-.675 3.555-1.515h0v2.34c0 .405-.375.78-1.05 1.065-.645.285-1.545.45-2.49.45zm-3.555-3.78v2.265c0 .825 1.59 1.5 3.555 1.5s3.555-.675 3.555-1.5v-2.265c-.045.375-.405.72-1.035.99-.675.285-1.56.45-2.52.45-.945 0-1.845-.15-2.52-.45-.63-.255-.99-.615-1.035-.99z" class="B"/><path d="M26.143 67.5c0 .84-1.59 1.515-3.555 1.515s-3.555-.675-3.555-1.515c0 0-.06-1.365 3.54-1.32 3.585.06 3.57 1.32 3.57 1.32h0z" class="C"/><path d="M22.588 69.015c-.945 0-1.845-.15-2.52-.45-.675-.285-1.05-.66-1.05-1.065 0 0 0-.255.27-.54.345-.36 1.155-.78 3.06-.78h.21c.825.015 1.515.09 2.07.225.45.105.81.27 1.065.45.435.315.435.63.435.645h0 0c0 .405-.375.78-1.05 1.065-.645.285-1.545.45-2.49.45zm-.225-2.835c-1.905 0-2.715.42-3.06.765-.27.285-.27.54-.27.54 0 .84 1.59 1.515 3.555 1.515s3.555-.675 3.555-1.515h0 0c0-.045-.03-.33-.435-.63-.255-.18-.615-.33-1.065-.45-.555-.135-1.26-.21-2.07-.225h-.21z" class="B"/><path d="M20.233 67.35c0 .675 1.05 1.14 2.355 1.14s2.355-.45 2.355-1.14v-47.1c0 .675-1.05 1.23-2.355 1.23s-2.355-.555-2.355-1.23v47.1z" class="C"/><path d="M22.588 68.49c-.645 0-1.23-.105-1.665-.315-.45-.21-.69-.495-.69-.825v-47.1h0c0 .675 1.05 1.23 2.355 1.23 1.29 0 2.355-.555 2.355-1.23h0v47.1c0 .33-.24.615-.69.825-.435.195-1.035.315-1.665.315zm-2.355-48.165V67.35c0 .315.24.615.69.825.435.195 1.02.315 1.665.315s1.23-.105 1.665-.315c.45-.21.69-.495.69-.825V20.325c-.075.645-1.11 1.155-2.355 1.155-.63 0-1.215-.135-1.665-.36-.405-.21-.645-.495-.69-.795z" class="B"/><path d="M27.418 13.89c0 1.29-2.16 2.34-4.83 2.34s-4.83-1.05-4.83-2.34 2.16-2.34 4.83-2.34c2.67.015 4.83 1.05 4.83 2.34h0z" class="C"/><path d="M22.588 16.23c-1.29 0-2.505-.24-3.42-.69-.45-.21-.795-.465-1.035-.75-.255-.285-.375-.6-.375-.915s.135-.615.375-.915c.24-.285.585-.525 1.035-.75.915-.435 2.13-.69 3.42-.69h0c1.29 0 2.505.24 3.42.69.45.21.795.465 1.035.75.255.285.375.6.375.915h0 0c0 .315-.135.615-.375.915-.24.285-.585.525-1.035.75-.915.45-2.13.69-3.42.69zm0-4.665h0c-2.67 0-4.83 1.05-4.83 2.34 0 .315.12.615.375.915.24.285.585.525 1.035.735.915.435 2.13.69 3.42.69s2.505-.24 3.405-.69c.45-.21.795-.465 1.035-.735.255-.285.375-.6.375-.915h0 0c0-.315-.135-.615-.375-.9s-.585-.525-1.035-.735c-.9-.465-2.115-.705-3.405-.705z" class="B"/><path d="M18.433 20.295c0 1.05 1.815 1.92 4.035 1.92 2.235 0 4.035-.855 4.035-1.92v-2.97c0 1.05-1.815 1.92-4.035 1.92-2.235 0-4.035-.855-4.035-1.92v2.97h0z" class="E"/><path d="M22.468 22.2c-2.235 0-4.035-.855-4.035-1.92v-2.97h0c0 1.05 1.815 1.92 4.035 1.92s4.035-.855 4.035-1.92h0v2.97c0 1.065-1.815 1.92-4.035 1.92zm-4.035-4.77v2.865c0 1.05 1.815 1.905 4.035 1.905s4.035-.855 4.035-1.905V17.43c-.045.48-.465.915-1.185 1.26-.765.36-1.785.555-2.865.555-2.145 0-3.915-.81-4.02-1.815z" class="B"/><path d="M17.758 17.52c0 1.29 2.16 2.34 4.83 2.34s4.83-1.05 4.83-2.34v-3.63c0 1.29-2.16 2.34-4.83 2.34s-4.83-1.05-4.83-2.34v3.63h0z" class="C"/><path d="M22.588 19.845c-1.29 0-2.505-.24-3.42-.69-.45-.21-.795-.465-1.035-.75-.255-.285-.375-.6-.375-.915v-3.6h0c0 .315.12.615.375.915.24.285.585.525 1.035.735.915.435 2.13.69 3.42.69s2.505-.24 3.405-.69c.45-.21.795-.465 1.035-.735.255-.285.375-.6.375-.915h0v3.615c.015 1.305-2.16 2.34-4.815 2.34zm-4.83-5.835v3.51c0 1.29 2.16 2.34 4.83 2.34 2.655 0 4.83-1.05 4.83-2.34v-3.51c-.03.27-.15.54-.375.795-.24.285-.585.525-1.035.75-.915.435-2.13.69-3.42.69s-2.505-.24-3.42-.69c-.45-.21-.795-.465-1.035-.75-.225-.255-.345-.525-.375-.795z" class="B"/><path d="M33.073 22.485l-7.515-4.455c-.21-.225-.435-.69-.375-.945.06-.27.555-.495.825-.435.255.06 7.95 4.71 7.95 4.71l-.885 1.125h0z" fill="url(#G)"/><path d="M33.073 22.485h0l-7.515-4.455c-.195-.21-.435-.675-.375-.945.03-.12.15-.255.33-.345s.36-.12.495-.09c.255.06 7.875 4.665 7.95 4.71h0 0l-.885 1.125zm-7.155-5.85c-.12 0-.255.045-.39.105-.18.09-.3.21-.33.33-.06.27.18.735.375.945.195.225 7.395 4.38 7.515 4.455l.885-1.125-7.95-4.71h-.105z" class="B"/><path d="M12.298 21.39l7.065-4.14c.3-.06.81-.03 1.005.15s.15.735-.03.93-8.04 4.56-8.04 4.56v-1.5h0z" fill="url(#H)"/><path d="M12.298 22.89v-1.485h0 0 0 0l7.065-4.14c.285-.06.81-.03 1.005.15.075.075.12.195.135.36.015.225-.06.45-.165.57-.165.18-7.95 4.5-8.04 4.545h0zm0-1.5v1.485l8.04-4.545c.105-.105.165-.345.165-.57 0-.165-.045-.285-.12-.36-.195-.18-.72-.21-1.005-.15-.3.075-6.945 4.065-7.08 4.14z" class="B"/><path d="M43.183 21.225c1.095 1.395 1.305 4.17 1.125 5.385s-1.965 4.11-3.36 4.11-11.145-7.095-6.33-10.74c.39-.39 1.245-1.395 3.42-1.395 2.19-.015 4.05 1.23 5.145 2.64h0z" class="D"/><path d="M40.948 30.72c-.255 0-.765-.225-1.425-.63-.705-.42-1.5-1.005-2.25-1.62-.87-.735-1.65-1.515-2.265-2.265-.735-.9-1.245-1.755-1.5-2.535-.51-1.515-.135-2.745 1.11-3.69.03-.03.06-.06.075-.09.42-.435 1.305-1.32 3.345-1.32h0c.525 0 1.05.075 1.56.21.492.138.965.334 1.41.585a7.29 7.29 0 0 1 2.16 1.845h0c.345.435.795 1.275 1.05 2.76.15.93.195 1.95.09 2.625-.09.63-.6 1.65-1.23 2.505-.345.465-.705.855-1.05 1.125-.375.33-.75.495-1.08.495zm-2.895-12.15c-2.04 0-2.925.885-3.345 1.32l-.09.09c-1.245.945-1.605 2.175-1.11 3.69.27.795.765 1.65 1.5 2.535.615.75 1.395 1.53 2.265 2.265 1.65 1.395 3.195 2.25 3.66 2.25.33 0 .69-.165 1.095-.465.345-.27.705-.66 1.05-1.125.63-.855 1.125-1.89 1.23-2.505.105-.675.06-1.695-.09-2.625-.255-1.5-.705-2.325-1.035-2.76h0c-.585-.75-1.335-1.395-2.16-1.845-.445-.251-.918-.447-1.41-.585-.51-.165-1.05-.24-1.56-.24z" class="B"/><path d="M34.078 20.64c1.95-1.59 5.46-.84 7.47 1.965 1.29 1.8 2.37 6.12.42 7.71s-5.295.705-7.47-1.965c-2.175-2.685-2.37-6.135-.42-7.71h0z" fill="url(#I)"/><path d="M39.628 31.11c-.42 0-.855-.06-1.305-.18-.69-.18-1.365-.495-2.01-.93-.675-.45-1.275-1.005-1.815-1.665a8.05 8.05 0 0 1-1.26-2.115c-.3-.72-.465-1.44-.495-2.16-.045-.705.06-1.365.27-1.95.225-.6.585-1.11 1.065-1.5h0 0c.81-.66 1.92-.93 3.12-.78.795.105 1.59.405 2.325.855.78.48 1.47 1.125 2.025 1.89.33.45.63 1.065.885 1.74.264.707.445 1.441.54 2.19.105.81.075 1.53-.06 2.16-.165.705-.48 1.245-.945 1.62-.48.39-1.035.63-1.68.735-.225.075-.435.09-.66.09zm-5.55-10.47c-.48.39-.825.885-1.065 1.5-.225.585-.315 1.245-.27 1.95a7.14 7.14 0 0 0 .495 2.16 8.05 8.05 0 0 0 1.26 2.115c.525.66 1.14 1.215 1.815 1.665.645.435 1.32.735 2.01.93.69.18 1.35.225 1.965.12.645-.105 1.2-.345 1.68-.735.465-.375.78-.915.93-1.62.15-.615.165-1.35.06-2.16a9.54 9.54 0 0 0-.54-2.19c-.255-.69-.555-1.29-.885-1.74-.555-.78-1.23-1.41-2.025-1.89-.735-.45-1.545-.75-2.325-.855-.225-.03-.45-.045-.66-.045-.93-.03-1.785.255-2.445.795h0 0z" class="B"/><path d="M33.463 21.945c.15-.3.33-.39.48-.39s9.105 5.7 9.105 5.7.015.54 0 .735c0 .21-.09.63-.09.63l-9.555-5.97c-.15-.225-.09-.405.06-.705h0z" fill="url(#G)"/><path d="M42.958 28.635h0c-.09-.06-9.405-5.73-9.555-5.97-.165-.255-.09-.435.06-.72h0c.165-.33.36-.39.48-.39.15 0 8.73 5.475 9.105 5.715h0 0s.015.54 0 .735c0 .195-.09.615-.09.63h0zm-9.495-6.69h0c-.135.285-.21.465-.06.72.15.24 9.33 5.835 9.555 5.955a3.65 3.65 0 0 0 .09-.63v-.735c-.15-.09-8.955-5.7-9.09-5.7s-.33.06-.495.39z" class="B"/><path d="M11.773 20.16c-1.575-2.025-6.48-4.65-10.41.57-3.555 4.98.81 9.165 2.19 9.465 7.545 1.32 9.855-7.32 8.22-10.035h0z" class="D"/><path d="M5.068 30.33a8.71 8.71 0 0 1-1.5-.135c-.42-.09-1.02-.495-1.575-1.065-.48-.48-1.155-1.29-1.575-2.415-.345-.9-.465-1.845-.36-2.775.12-1.095.57-2.175 1.32-3.225.795-1.065 1.68-1.86 2.625-2.37.84-.45 1.725-.675 2.64-.69h.045c1.02 0 2.07.27 3.045.81.825.435 1.575 1.05 2.055 1.68h0c.435.735.6 1.92.435 3.225-.18 1.395-.705 2.805-1.485 3.93-.36.525-.765.99-1.215 1.38-.48.42-1.02.78-1.59 1.035-.9.42-1.845.615-2.865.615zm1.605-12.66h-.045c-.915 0-1.815.24-2.64.69-.945.51-1.83 1.305-2.625 2.37-.75 1.05-1.2 2.13-1.32 3.225-.105.93.015 1.86.36 2.76.435 1.125 1.095 1.935 1.575 2.415.555.555 1.17.96 1.575 1.065 1.605.285 3.06.12 4.335-.465.57-.255 1.11-.615 1.59-1.035.45-.39.855-.87 1.215-1.38.78-1.14 1.305-2.535 1.485-3.93.165-1.305.015-2.49-.435-3.225h0c-.48-.63-1.23-1.245-2.055-1.68-.945-.525-1.995-.81-3.015-.81z" class="B"/><path d="M10.903 19.965c1.86 1.575 1.68 5.025-.42 7.71s-5.31 3.585-7.17 2.01-1.68-5.025.42-7.71 5.31-3.585 7.17-2.01h0z" fill="url(#J)"/><path d="M5.533 30.465c-.855 0-1.62-.27-2.22-.78a3.61 3.61 0 0 1-1.02-1.485c-.21-.585-.3-1.245-.255-1.95s.195-1.44.48-2.16c.285-.75.705-1.455 1.215-2.115.615-.78 1.35-1.455 2.145-1.935.765-.465 1.575-.75 2.355-.825 1.035-.105 1.965.15 2.67.75h0a3.61 3.61 0 0 1 1.02 1.485c.21.585.3 1.245.255 1.95s-.195 1.44-.48 2.16c-.285.75-.705 1.455-1.215 2.115-.615.78-1.35 1.455-2.145 1.935-.765.465-1.575.75-2.355.825l-.45.03zM8.683 19.2c-.15 0-.3.015-.45.03-.765.075-1.59.36-2.355.825-.78.465-1.53 1.14-2.13 1.92a8.78 8.78 0 0 0-1.215 2.115 6.6 6.6 0 0 0-.48 2.16c-.045.705.045 1.365.255 1.95.225.6.555 1.11 1.02 1.485.705.6 1.635.855 2.67.75.765-.075 1.59-.36 2.355-.825.795-.48 1.53-1.14 2.145-1.935a8.78 8.78 0 0 0 1.215-2.115 6.6 6.6 0 0 0 .48-2.16c.045-.705-.045-1.365-.255-1.95-.225-.6-.555-1.11-1.02-1.485h0c-.615-.51-1.38-.765-2.235-.765z" class="B"/><path d="M2.083 27.255l9.915-5.625.15.75c.03.15.045.63.045.63l-9.795 5.415s-.18-.435-.21-.615l-.105-.555h0z" fill="url(#K)"/><path d="M2.398 28.425h0s-.18-.435-.21-.615l-.105-.54h0 0 0 0l9.915-5.64h0l.15.75c.03.15.045.63.045.63h0 0l-9.795 5.415zm-.315-1.17c0 .03.075.375.105.54.03.18.195.57.21.615l9.795-5.4c0-.03-.015-.495-.045-.63l-.15-.735-9.915 5.61z" class="B"/><path d="M5.218.855c1.83-.555 5.1 1.2 6.345 3.54s1.35 5.76.885 6.855-4.935 2.49-6.495 2.175S1.273 11.4.658 7.98C.028 4.545 3.403 1.425 5.218.855z" fill="url(#L)"/><path d="M6.478 13.47a2.74 2.74 0 0 1-.525-.045c-.735-.15-1.92-.63-3-1.56a6.98 6.98 0 0 1-1.425-1.635c-.435-.69-.72-1.455-.87-2.25-.15-.81-.075-1.635.195-2.475.24-.735.63-1.455 1.17-2.16a8.8 8.8 0 0 1 1.635-1.62c.555-.42 1.11-.72 1.575-.87h0 0c.45-.135.975-.15 1.59-.015.57.12 1.2.36 1.8.69.615.33 1.2.765 1.695 1.245.54.51.96 1.05 1.26 1.62.555 1.05.945 2.43 1.08 3.9.12 1.23.045 2.4-.195 2.955-.105.255-.45.555-.99.84a10.38 10.38 0 0 1-1.845.765c-1.215.405-2.37.615-3.15.615zM5.983.75c-.27 0-.525.03-.765.105-.84.255-2.145 1.125-3.195 2.49-.54.69-.93 1.41-1.17 2.145-.27.84-.345 1.68-.195 2.475.15.81.435 1.56.87 2.25a6.98 6.98 0 0 0 1.425 1.635c1.08.915 2.265 1.41 3 1.56.72.15 2.16-.075 3.66-.57 1.2-.39 2.58-1.02 2.835-1.62.24-.555.315-1.725.195-2.955-.135-1.47-.525-2.85-1.08-3.9-.3-.57-.72-1.11-1.26-1.62-.495-.48-1.08-.9-1.695-1.23a6.71 6.71 0 0 0-1.8-.69C6.508.78 6.238.75 5.983.75z" class="B"/></g></symbol></svg>