<svg id="svg" version="1.1" xmlns="http://www.w3.org/2000/svg" style="display: block;" viewBox="0 0 400 400"><path d="M0 0 C132 0 264 0 400 0 C400 132 400 264 400 400 C268 400 136 400 0 400 C0 268 0 136 0 0 Z " transform="translate(0,0)" style="fill: #FEFEFE;"/><path d="M0 0 C20.17599805 -0.06537125 40.35135533 -0.06355346 60.52737522 -0.01496887 C65.44005205 -0.0036695 70.35268396 0.00145344 75.26537323 0.00135612 C115.33397411 0.00317295 154.58293782 1.18838066 194.37939453 6.28857422 C202.24133076 7.29573417 210.11970273 8.15081107 218 9 C218 9.66 218 10.32 218 11 C217.14881592 11.14099121 216.29763184 11.28198242 215.4206543 11.42724609 C212.20927754 11.9596052 208.9980312 12.49273867 205.78686523 13.02636719 C204.40703252 13.25551024 203.0271511 13.48436016 201.6472168 13.71289062 C197.09665808 14.46663373 192.54775668 15.22951731 188 16 C187.03175293 16.16298584 186.06350586 16.32597168 185.06591797 16.49389648 C148.54292192 21.97187754 148.54292192 21.97187754 117.296875 39.7421875 C116 41 116 41 113 41 C112.62875 41.804375 112.62875 41.804375 112.25 42.625 C110.01390094 46.87358821 108.03188725 50.31207517 104 53 C103.01 53 102.02 53 101 53 C100.773125 53.556875 100.54625 54.11375 100.3125 54.6875 C98.64123288 57.6321135 96.39147596 59.60852404 94 62 C92.56543348 63.95119498 91.28931763 65.9466423 90 68 C88.35 67.34 86.7 66.68 85 66 C85 65.34 85 64.68 85 64 C84.3090625 63.7834375 83.618125 63.566875 82.90625 63.34375 C78.54778331 61.32854497 75.3646083 58.17425386 71.81640625 54.98828125 C68.68524693 52.24022848 66.05371088 50.2705661 62 49 C62.93539524 51.52163182 63.87325455 54.04230241 64.8125 56.5625 C65.07353516 57.26697266 65.33457031 57.97144531 65.60351562 58.69726562 C66.86425202 62.07479398 68.16219637 65.40929576 69.62890625 68.703125 C70.83171896 71.59535842 71.588311 74.1186147 72.125 77.1875 C72.65841926 80.15873883 73.23451547 83.07907217 74 86 C65.43447161 86 58.34569188 81.76083528 51.4375 77.125 C49.85446749 76.08349707 48.26983682 75.04441908 46.68359375 74.0078125 C45.91772949 73.50668945 45.15186523 73.00556641 44.36279297 72.48925781 C40.66673372 70.15964824 36.84857268 68.06519978 33 66 C34.74766492 69.83440208 36.49855571 73.66732293 38.25 77.5 C38.74113281 78.57765625 39.23226562 79.6553125 39.73828125 80.765625 C41.87401584 85.43576463 44.01638468 90.08597259 46.359375 94.65625 C48 98 48 98 48 100 C47.34 100 46.68 100 46 100 C46 100.66 46 101.32 46 102 C44.948125 102.391875 43.89625 102.78375 42.8125 103.1875 C39.98122228 104.38469359 38.75876982 105.24123018 36.5 107.5 C34 110 34 110 30.8125 111.1875 C25.98795365 113.016413 22.91589999 116.85503117 19.41796875 120.51171875 C17.45209173 122.53476182 15.49311636 124.34620508 13.3125 126.125 C-7.73020784 143.84002381 -20.95800125 172.77223269 -27 199 C-27.33 199 -27.66 199 -28 199 C-28.27492884 184.19966416 -27.61197125 169.71329461 -26 155 C-25.86577637 153.7728125 -25.73155273 152.545625 -25.59326172 151.28125 C-23.93257446 136.45092658 -21.95507239 121.76097129 -18.99243164 107.125 C-17.15329202 98.01028771 -15.61842387 88.86349157 -14.125 79.6875 C-12.02297575 66.82060029 -9.75061512 53.99504064 -7.3125 41.1875 C-7.16806458 40.4280307 -7.02362915 39.6685614 -6.87481689 38.88607788 C-4.4402856 26.11200831 -4.4402856 26.11200831 -3.16162109 19.91259766 C-3.0261235 19.25157547 -2.89062592 18.59055328 -2.75102234 17.90950012 C-2.38345661 16.12421937 -2.01066841 14.34001605 -1.63745117 12.5559082 C-0.88967106 8.38454959 -0.4185619 4.21522033 0 0 Z " transform="translate(108,101)" style="fill: #9FCA6F;"/><path d="M0 0 C7.32151822 2.07195758 14.39998478 4.58443525 21.5 7.3125 C31.58769812 11.14324189 41.73385228 14.68205366 52 18 C59.28954535 20.36777203 66.4819524 22.91556605 73.64355469 25.64404297 C79.59810834 27.89288222 85.62216108 29.8953464 91.66992188 31.87695312 C97.20576079 33.70275752 102.63720287 35.70935801 108 38 C107.34 39.32 106.68 40.64 106 42 C105.34 42 104.68 42 104 42 C103.67 42.99 103.34 43.98 103 45 C101.55889951 46.15914604 100.11712433 47.31746994 98.67089844 48.47021484 C95.57596612 51.30376918 93.4188192 54.82502216 91.125 58.3125 C90.62742187 59.05306641 90.12984375 59.79363281 89.6171875 60.55664062 C88.40337124 62.36569371 87.20053595 64.1821066 86 66 C84.35 65.34 82.7 64.68 81 64 C81 63.34 81 62.68 81 62 C80.3090625 61.7834375 79.618125 61.566875 78.90625 61.34375 C74.54778331 59.32854497 71.3646083 56.17425386 67.81640625 52.98828125 C64.68524693 50.24022848 62.05371088 48.2705661 58 47 C58.93539524 49.52163182 59.87325455 52.04230241 60.8125 54.5625 C61.07353516 55.26697266 61.33457031 55.97144531 61.60351562 56.69726562 C62.86425202 60.07479398 64.16219637 63.40929576 65.62890625 66.703125 C66.83171896 69.59535842 67.588311 72.1186147 68.125 75.1875 C68.65841926 78.15873883 69.23451547 81.07907217 70 84 C61.43447161 84 54.34569188 79.76083528 47.4375 75.125 C45.85446749 74.08349707 44.26983682 73.04441908 42.68359375 72.0078125 C41.91772949 71.50668945 41.15186523 71.00556641 40.36279297 70.48925781 C36.66673372 68.15964824 32.84857268 66.06519978 29 64 C30.74766492 67.83440208 32.49855571 71.66732293 34.25 75.5 C34.74113281 76.57765625 35.23226562 77.6553125 35.73828125 78.765625 C37.87401584 83.43576463 40.01638468 88.08597259 42.359375 92.65625 C44 96 44 96 44 98 C43.34 98 42.68 98 42 98 C42 98.66 42 99.32 42 100 C40.948125 100.391875 39.89625 100.78375 38.8125 101.1875 C35.98122228 102.38469359 34.75876982 103.24123018 32.5 105.5 C29.57779343 108.42220657 26.79632621 109.45334858 23 111 C21.98198643 111.98165594 20.9753197 112.97591432 20 114 C19.01 114 18.02 114 17 114 C16.91548584 113.4416748 16.83097168 112.88334961 16.74389648 112.30810547 C14.47299161 97.43940414 11.86669778 82.65203682 9.1060791 67.86825562 C6.78788306 55.44335068 4.60764262 43.00532137 2.59790039 30.52661133 C1.69078738 24.93427758 0.68749813 19.41128355 -0.59155273 13.89233398 C-1.12557067 11.41823176 -1.41199834 8.9580196 -1.625 6.4375 C-1.69976562 5.59058594 -1.77453125 4.74367188 -1.8515625 3.87109375 C-1.90054688 3.25363281 -1.94953125 2.63617188 -2 2 C0.75421057 3.37710529 0.98302301 4.87157257 2.1875 7.6875 C4.26963442 12.42529089 6.48495062 17.06726426 8.8125 21.6875 C9.12662842 22.31164795 9.44075684 22.9357959 9.7644043 23.57885742 C10.50796564 25.05339835 11.25373499 26.52682555 12 28 C11.67257813 27.08992188 11.34515625 26.17984375 11.0078125 25.2421875 C9.89811568 21.67223262 9.85135107 18.71622321 10 15 C14.75 13.875 14.75 13.875 17 15 C17 15.99 17 16.98 17 18 C18.32 18 19.64 18 21 18 C21 18.99 21 19.98 21 21 C23.64 21.66 26.28 22.32 29 23 C28.175 22.54625 27.35 22.0925 26.5 21.625 C25.675 21.08875 24.85 20.5525 24 20 C24 19.34 24 18.68 24 18 C23.319375 17.77957031 22.63875 17.55914062 21.9375 17.33203125 C18.1583451 15.61834532 15.21917097 13.27728177 12 10.6875 C11.39671875 10.21376953 10.7934375 9.74003906 10.171875 9.25195312 C6.53933493 6.36566313 3.21603242 3.3439428 0 0 Z " transform="translate(112,103)" style="fill: #A1CC6A;"/><path d="M0 0 C6.39647528 -0.02591736 12.79293649 -0.04309676 19.18945312 -0.05493164 C21.35352077 -0.05987899 23.51758522 -0.06663843 25.68164062 -0.07543945 C50.86174894 -0.17508141 75.48513235 1.1339713 100.5 4.0625 C102.9920979 4.34778903 105.48428521 4.63229802 107.9765625 4.91601562 C113.98543057 5.60173273 119.99314242 6.29689947 126 7 C126 7.66 126 8.32 126 9 C125.14881592 9.14099121 124.29763184 9.28198242 123.4206543 9.42724609 C120.20927754 9.9596052 116.9980312 10.49273867 113.78686523 11.02636719 C112.40703252 11.25551024 111.0271511 11.48436016 109.6472168 11.71289062 C105.09665808 12.46663373 100.54775668 13.22951731 96 14 C95.03175293 14.16298584 94.06350586 14.32597168 93.06591797 14.49389648 C56.54292192 19.97187754 56.54292192 19.97187754 25.296875 37.7421875 C24 39 24 39 21 39 C20.7525 39.53625 20.505 40.0725 20.25 40.625 C18.01390094 44.87358821 16.03188725 48.31207517 12 51 C11.01 51 10.02 51 9 51 C8.71125 51.639375 8.4225 52.27875 8.125 52.9375 C7 55 7 55 5 56 C6.20381448 53.50638429 7.45428722 51.31856917 9 49 C9.66 49 10.32 49 11 49 C11.20625 48.443125 11.4125 47.88625 11.625 47.3125 C12.96846753 45.05303189 14.05157702 44.0001344 16.0625 42.375 C19.00824713 40.32880603 19.00824713 40.32880603 20 38 C19.443125 37.89042969 18.88625 37.78085938 18.3125 37.66796875 C13.84630141 36.74002546 9.64983147 35.61100775 5.39453125 33.9296875 C2.11982116 32.65826661 -1.19007004 31.48819442 -4.5 30.3125 C-5.7271875 29.87550781 -6.954375 29.43851563 -8.21875 28.98828125 C-9.1365625 28.66214844 -10.054375 28.33601563 -11 28 C-10.34 27.67 -9.68 27.34 -9 27 C-9.0928125 25.8553125 -9.0928125 25.8553125 -9.1875 24.6875 C-9 22 -9 22 -7.5546875 20.65234375 C-5.50995246 18.47917058 -5.37631225 16.79757477 -4.9375 13.875 C-4.52734375 11.1796875 -4.52734375 11.1796875 -4 9 C-3.34 8.67 -2.68 8.34 -2 8 C-2 6.68 -2 5.36 -2 4 C-1.01 3.34 -0.02 2.68 1 2 C0.67 1.34 0.34 0.68 0 0 Z " transform="translate(200,103)" style="fill: #A0CC69;"/><path d="M0 0 C3.0254389 10.06462673 5.4917673 20.427003 5 31 C5.66 31.33 6.32 31.66 7 32 C6.32453125 32.59167969 5.6490625 33.18335938 4.953125 33.79296875 C4.06109375 34.58316406 3.1690625 35.37335938 2.25 36.1875 C1.36828125 36.96480469 0.4865625 37.74210937 -0.421875 38.54296875 C-2.88238296 40.8879074 -4.91930906 43.3197121 -7 46 C-7.763125 46.7425 -8.52625 47.485 -9.3125 48.25 C-26.67740219 66.01873712 -37.48746285 90.07057738 -43 114 C-43.33 114 -43.66 114 -44 114 C-44.27492884 99.19966416 -43.61197125 84.71329461 -42 70 C-41.86577637 68.7728125 -41.73155273 67.545625 -41.59326172 66.28125 C-39.98520512 51.92093058 -38.1228597 37.64230943 -35.4375 23.4375 C-35.23987061 22.38006592 -35.04224121 21.32263184 -34.83862305 20.2331543 C-32.71307471 9.51783339 -32.71307471 9.51783339 -30 5 C-25.19673565 2.19220945 -20.43491778 1.37993873 -15 0.8125 C-13.99066406 0.6897168 -13.99066406 0.6897168 -12.9609375 0.56445312 C-8.60725241 0.06436768 -4.37149852 -0.07399672 0 0 Z " transform="translate(124,186)" style="fill: #A0CC69;"/><path d="M0 0 C7.32151822 2.07195758 14.39998478 4.58443525 21.5 7.3125 C31.58769812 11.14324189 41.73385228 14.68205366 52 18 C59.28954535 20.36777203 66.4819524 22.91556605 73.64355469 25.64404297 C79.59810834 27.89288222 85.62216108 29.8953464 91.66992188 31.87695312 C97.20576079 33.70275752 102.63720287 35.70935801 108 38 C107.34 39.32 106.68 40.64 106 42 C105.34 42 104.68 42 104 42 C103.67 42.99 103.34 43.98 103 45 C101.55889951 46.15914604 100.11712433 47.31746994 98.67089844 48.47021484 C95.57596612 51.30376918 93.4188192 54.82502216 91.125 58.3125 C90.62742187 59.05306641 90.12984375 59.79363281 89.6171875 60.55664062 C88.40337124 62.36569371 87.20053595 64.1821066 86 66 C84.35 65.34 82.7 64.68 81 64 C81 63.34 81 62.68 81 62 C80.29746094 61.773125 79.59492188 61.54625 78.87109375 61.3125 C75.41127091 59.7308667 72.86565642 57.50969761 70.0625 55 C65.55565898 51.07258229 60.9648029 47.42114056 56.0625 44 C50.58002328 40.17142921 45.29661321 36.15516319 40.07006836 31.98461914 C35.47054735 28.32687675 30.74512903 24.9069266 25.9140625 21.55859375 C24.96660156 20.78708984 24.96660156 20.78708984 24 20 C24 19.34 24 18.68 24 18 C23.319375 17.77957031 22.63875 17.55914062 21.9375 17.33203125 C18.1583451 15.61834532 15.21917097 13.27728177 12 10.6875 C11.39671875 10.21376953 10.7934375 9.74003906 10.171875 9.25195312 C6.53933493 6.36566313 3.21603242 3.3439428 0 0 Z " transform="translate(112,103)" style="fill: #104775;"/><path d="M0 0 C2.79050363 1.39525182 3.06348479 3.02301322 4.29296875 5.8671875 C6.85326152 11.67776773 9.55985415 17.40350621 12.3125 23.125 C23.93418271 47.35744481 23.93418271 47.35744481 28.5 57.5625 C30.50940259 62.01959768 32.67468969 66.385254 34.875 70.75 C37.65053541 76.26075948 40.37167291 81.79235176 43 87.375 C43.30276855 88.01147461 43.60553711 88.64794922 43.91748047 89.30371094 C46 93.76189058 46 93.76189058 46 96 C45.34 96 44.68 96 44 96 C44 96.66 44 97.32 44 98 C42.948125 98.391875 41.89625 98.78375 40.8125 99.1875 C37.98122228 100.38469359 36.75876982 101.24123018 34.5 103.5 C31.57779343 106.42220657 28.79632621 107.45334858 25 109 C23.98198643 109.98165594 22.9753197 110.97591432 22 112 C21.01 112 20.02 112 19 112 C18.91548584 111.4416748 18.83097168 110.88334961 18.74389648 110.30810547 C16.47299161 95.43940414 13.86669778 80.65203682 11.1060791 65.86825562 C8.78788306 53.44335068 6.60764262 41.00532137 4.59790039 28.52661133 C3.69078738 22.93427758 2.68749813 17.41128355 1.40844727 11.89233398 C0.87442933 9.41823176 0.58800166 6.9580196 0.375 4.4375 C0.30023438 3.59058594 0.22546875 2.74367188 0.1484375 1.87109375 C0.09945312 1.25363281 0.05046875 0.63617188 0 0 Z " transform="translate(110,105)" style="fill: #114775;"/><path d="M0 0 C4.57489569 1.28668941 7.31182448 3.93019044 10.73046875 7.0546875 C13.98523506 9.84448719 17.51660131 12.16529333 21.09375 14.51953125 C21.7228125 15.00808594 22.351875 15.49664062 23 16 C23 16.66 23 17.32 23 18 C25.475 18.99 25.475 18.99 28 20 C28.226875 19.278125 28.45375 18.55625 28.6875 17.8125 C30.24831013 14.46790687 32.3031287 12.48396041 35 10 C34.75 13.375 34.75 13.375 34 17 C33.35804688 17.31324219 32.71609375 17.62648437 32.0546875 17.94921875 C29.85195877 18.82105805 29.85195877 18.82105805 29.0234375 20.93359375 C27.17916415 28.0551553 26.32717217 35.13107602 25.73388672 42.44897461 C25.66572754 43.23796143 25.59756836 44.02694824 25.52734375 44.83984375 C25.47312256 45.54488037 25.41890137 46.24991699 25.36303711 46.97631836 C24.95296324 49.26219753 24.1234 50.97867412 23 53 C21.93152832 53.03963867 20.86305664 53.07927734 19.76220703 53.12011719 C15.75433534 53.27359342 11.74778909 53.45079779 7.74121094 53.63476562 C6.0152424 53.71078813 4.28898693 53.78058584 2.5625 53.84375 C-10.25301682 54.19149595 -10.25301682 54.19149595 -22.28955078 58.26660156 C-22.85399902 58.50862305 -23.41844727 58.75064453 -24 59 C-24.66 58.67 -25.32 58.34 -26 58 C-20.5 54 -20.5 54 -16 54 C-16 53.34 -16 52.68 -16 52 C-15.34 52 -14.68 52 -14 52 C-15.8143892 48.22783985 -17.62917956 44.45587305 -19.44433594 40.68408203 C-20.06130729 39.40190809 -20.67817051 38.11968212 -21.29492188 36.83740234 C-22.1833067 34.99042163 -23.07208491 33.14363065 -23.9609375 31.296875 C-24.49509277 30.18666992 -25.02924805 29.07646484 -25.57958984 27.93261719 C-26.41706923 26.20353463 -27.2778626 24.48486532 -28.18994141 22.79394531 C-29 21 -29 21 -29 18 C-24.69520848 19.27870186 -21.26232735 20.90655936 -17.515625 23.37109375 C-16.49726563 24.02787109 -15.47890625 24.68464844 -14.4296875 25.36132812 C-12.32263401 26.73712534 -10.21842283 28.1172862 -8.1171875 29.50195312 C-1.90571132 33.49560374 3.76739051 36.39286512 11 38 C10.84474854 37.38769531 10.68949707 36.77539062 10.52954102 36.14453125 C10.16449283 34.66616183 9.83228174 33.179428 9.52734375 31.6875 C7.7591709 23.63118928 4.82440674 16.25907985 1.60522461 8.6796875 C1.25596924 7.844375 0.90671387 7.0090625 0.546875 6.1484375 C0.22557617 5.39739746 -0.09572266 4.64635742 -0.42675781 3.87255859 C-1 2 -1 2 0 0 Z " transform="translate(170,149)" style="fill: #AACC81;"/><path d="M0 0 C3.93093389 0.75226127 7.81568438 1.60958655 11.6875 2.625 C12.82574219 2.90601563 13.96398437 3.18703125 15.13671875 3.4765625 C18 5 18 5 19.29296875 8.109375 C19.52628906 9.39328125 19.75960937 10.6771875 20 12 C20.13913818 12.68690918 20.27827637 13.37381836 20.42163086 14.08154297 C20.85780666 16.25771593 21.24635556 18.43813515 21.625 20.625 C21.7590625 21.36234375 21.893125 22.0996875 22.03125 22.859375 C22.22074219 23.93832031 22.22074219 23.93832031 22.4140625 25.0390625 C22.58349365 26.00126709 22.58349365 26.00126709 22.75634766 26.98291016 C23.04054179 29.33562753 23.0384921 31.63247912 23 34 C22.33991943 34.08564209 21.67983887 34.17128418 20.99975586 34.25952148 C17.97894401 34.65172122 14.95822152 35.04460519 11.9375 35.4375 C10.89916016 35.57220703 9.86082031 35.70691406 8.79101562 35.84570312 C7.77587891 35.97783203 6.76074219 36.10996094 5.71484375 36.24609375 C4.78792725 36.36654053 3.86101074 36.4869873 2.90600586 36.61108398 C-0.39906603 37.05340773 -3.69956636 37.52440733 -7 38 C-6.32883753 33.87330962 -5.65320844 29.74738152 -4.97363281 25.62207031 C-4.74359622 24.22187556 -4.51472985 22.82148799 -4.28710938 21.42089844 C-3.11437579 14.20961561 -1.94441767 7.05078558 0 0 Z " transform="translate(101,152)" style="fill: #FAFCF9;"/><path d="M0 0 C12.54 0 25.08 0 38 0 C37.27584813 4.34491125 36.62646868 7.30761857 35.0625 11.25 C33.10792595 16.43139813 31.89942367 21.54428538 31 27 C24.94929004 26.57785744 19.85489066 24.51437836 14.24609375 22.27734375 C10.20834157 20.68848098 6.12927625 19.32976693 2 18 C1.34 12.06 0.68 6.12 0 0 Z " transform="translate(160,103)" style="fill: #F8FCF6;"/><path d="M0 0 C4.15764538 1.25729874 7.62638904 2.79340412 11.30859375 5.08984375 C12.79045166 6.01192627 12.79045166 6.01192627 14.30224609 6.95263672 C15.33687988 7.6076416 16.37151367 8.26264648 17.4375 8.9375 C18.50049316 9.60539551 19.56348633 10.27329102 20.65869141 10.96142578 C28.12281073 15.69568069 35.33473751 20.67223273 42.3671875 26.0234375 C44.80726585 27.97836308 44.80726585 27.97836308 47 29 C47 29.66 47 30.32 47 31 C41.13558802 31.2987234 36.24925932 30.22423028 30.625 28.625 C29.01350461 28.17793999 27.40152539 27.73262025 25.7890625 27.2890625 C24.60618652 26.95890137 24.60618652 26.95890137 23.39941406 26.62207031 C20.26819654 25.81027318 17.10728138 25.20538384 13.92333984 24.63818359 C10.88779158 23.63095801 9.5103088 21.88545282 7.94091797 19.16235352 C7.62783691 18.49131592 7.31475586 17.82027832 6.9921875 17.12890625 C6.64542969 16.38962891 6.29867187 15.65035156 5.94140625 14.88867188 C5.41353516 13.7372168 5.41353516 13.7372168 4.875 12.5625 C4.51535156 11.79873047 4.15570313 11.03496094 3.78515625 10.24804688 C2.20412088 6.84615616 0.8211086 3.67346151 0 0 Z " transform="translate(141,167)" style="fill: #F9FCF6;"/><path d="M0 0 C14.85 0 29.7 0 45 0 C46.3547936 6.77396799 47.24411994 11.40876152 47 18 C41.05763804 17.40751671 35.92314797 15.71309781 30.34765625 13.62109375 C28.99745644 13.12380516 28.99745644 13.12380516 27.61997986 12.61647034 C24.7650419 11.56329146 21.9137716 10.50055956 19.0625 9.4375 C17.11937549 8.71876575 15.17601837 8.00066004 13.23242188 7.28320312 C8.48555809 5.52939879 3.74195846 3.76702215 -1 2 C-0.67 1.34 -0.34 0.68 0 0 Z " transform="translate(115,102)" style="fill: #A0CB6B;"/><path d="M0 0 C4.55114205 1.2800087 7.36363059 3.905472 10.7421875 7.05078125 C12.8221623 8.96610669 12.8221623 8.96610669 14.72001648 10.00546265 C16.70877802 11.20104675 18.35449051 12.35940126 20 14 C20.71933511 16.99323444 20.9616061 18.94129102 20.90234375 21.92578125 C20.91463516 22.67337204 20.92692657 23.42096283 20.93959045 24.19120789 C20.97124414 26.56597944 20.95507021 28.93763343 20.9375 31.3125 C20.95061379 32.92776314 20.96685607 34.54300412 20.98632812 36.15820312 C21.02711534 40.10613123 21.02503371 44.05196276 21 48 C18.44707199 45.70767858 17.06329458 43.46222263 15.58203125 40.37890625 C15.13569336 39.45231201 14.68935547 38.52571777 14.22949219 37.57104492 C13.76188477 36.5782251 13.29427734 35.58540527 12.8125 34.5625 C12.33071289 33.54583252 11.84892578 32.52916504 11.35253906 31.48168945 C8.13923705 24.62227983 5.0963144 17.7071136 2.25 10.6875 C1.90300049 9.8406665 1.55600098 8.99383301 1.19848633 8.12133789 C0.40139043 6.1051296 -0.30864253 4.05486802 -1 2 C-0.67 1.34 -0.34 0.68 0 0 Z " transform="translate(170,149)" style="fill: #FAFDF8;"/><path d="M0 0 C35.57040655 -0.1152499 71.1344351 -0.05599454 106.70241928 0.40571976 C109.18218369 0.43743201 111.66196376 0.46743577 114.14175415 0.49703979 C118.06450617 0.54432009 121.98716111 0.59658118 125.90979385 0.65287781 C127.34955101 0.67301899 128.78932791 0.69180444 130.22912216 0.70909119 C137.55493374 0.79886305 144.73546731 1.02255039 152 2 C152 2.33 152 2.66 152 3 C151.28003342 2.99111755 150.56006683 2.98223511 149.81828308 2.9730835 C143.03516688 2.89295439 136.25212135 2.83204426 129.46865368 2.79275131 C125.98109444 2.771871 122.49392606 2.74354682 119.0065918 2.69824219 C114.99784583 2.64648938 110.98951078 2.62705864 106.98046875 2.609375 C105.72727341 2.58872986 104.47407806 2.56808472 103.1829071 2.54681396 C101.44144157 2.54636078 101.44144157 2.54636078 99.66479492 2.54589844 C98.64109299 2.53701599 97.61739105 2.52813354 96.56266785 2.51898193 C93.87233066 2.76684442 93.87233066 2.76684442 92.18891907 4.88775635 C91.02796074 6.95032472 90.41448384 8.67889052 90 11 C89.34 11 88.68 11 88 11 C88.061875 12.051875 88.12375 13.10375 88.1875 14.1875 C87.9922214 18.15816493 87.29674932 19.84196969 85 23 C83.94288573 19.80042565 84.04815222 18.03354912 85.21484375 14.890625 C85.48876953 14.13652344 85.76269531 13.38242188 86.04492188 12.60546875 C86.33947266 11.82816406 86.63402344 11.05085938 86.9375 10.25 C87.37352539 9.06083984 87.37352539 9.06083984 87.81835938 7.84765625 C88.53594814 5.89487371 89.26670906 3.94694059 90 2 C88.94399597 2.00222061 87.88799194 2.00444122 86.79998779 2.00672913 C76.85312155 2.02699182 66.90625948 2.04198726 56.95937729 2.05181217 C51.84546804 2.05703303 46.73157545 2.06411626 41.61767578 2.07543945 C36.68344204 2.08629658 31.74922432 2.09228285 26.81497955 2.09487724 C24.93150836 2.09672638 23.04803805 2.10033722 21.16457367 2.10573006 C18.52864174 2.11297793 15.89277621 2.11398935 13.25683594 2.11352539 C12.08618843 2.1189183 12.08618843 2.1189183 10.89189148 2.12442017 C7.41948828 2.11779691 4.34039789 1.93034906 1 1 C0.67 1.99 0.34 2.98 0 4 C0 2.68 0 1.36 0 0 Z " transform="translate(108,101)" style="fill: #B3CD90;"/><path d="M0 0 C18.2404486 3.7236978 18.2404486 3.7236978 25.625 5.5625 C26.46289062 5.77003906 27.30078125 5.97757813 28.1640625 6.19140625 C28.76992187 6.45824219 29.37578125 6.72507813 30 7 C30.33 7.99 30.66 8.98 31 10 C25.23900697 11.16989449 19.4809405 11.33204041 13.625 11.5625 C12.60277344 11.60568359 11.58054688 11.64886719 10.52734375 11.69335938 C8.01834712 11.79887792 5.50926057 11.90099213 3 12 C3.66 11.67 4.32 11.34 5 11 C3.35 7.37 1.7 3.74 0 0 Z " transform="translate(151,190)" style="fill: #A2C96C;"/><path d="M0 0 C4.29453403 0.47717045 6.04703276 3.03867925 9 6 C11.1132431 7.779943 13.29916155 9.45522233 15.5 11.125 C16.05558594 11.55425781 16.61117187 11.98351562 17.18359375 12.42578125 C19.69034938 14.34271202 22.17199201 16.09940398 24.90625 17.6796875 C25.5971875 18.11539063 26.288125 18.55109375 27 19 C27 19.66 27 20.32 27 21 C28.2065625 21.433125 28.2065625 21.433125 29.4375 21.875 C32 23 32 23 33 25 C31.51882199 24.71872579 30.04006751 24.42466268 28.5625 24.125 C27.73878906 23.96257812 26.91507813 23.80015625 26.06640625 23.6328125 C25.38449219 23.42398438 24.70257813 23.21515625 24 23 C23.67 22.34 23.34 21.68 23 21 C23.33 20.34 23.66 19.68 24 19 C22.68 19 21.36 19 20 19 C20 18.01 20 17.02 20 16 C17.69 16 15.38 16 13 16 C13.144375 16.75925781 13.28875 17.51851562 13.4375 18.30078125 C13.623125 19.29464844 13.80875 20.28851563 14 21.3125 C14.185625 22.29863281 14.37125 23.28476563 14.5625 24.30078125 C15 27 15 27 15 30 C12.68943584 27.1218117 11.10651929 24.3131765 9.625 20.9375 C9.20089844 19.98101562 8.77679688 19.02453125 8.33984375 18.0390625 C7.89769531 17.03617188 7.45554687 16.03328125 7 15 C6.06499603 12.93636726 5.12760772 10.87381268 4.1875 8.8125 C3.45833333 7.20833333 2.72916667 5.60416667 2 4 C1.34 4 0.68 4 0 4 C0 2.68 0 1.36 0 0 Z " transform="translate(109,102)" style="fill: #9AC977;"/><path d="M0 0 C1 2 1 2 0.25 5.0625 C-0.1625 6.031875 -0.575 7.00125 -1 8 C-1.99 8.33 -2.98 8.66 -4 9 C-6.38919113 14.71772235 -7.22144531 20.91734455 -7.75 27.05078125 C-8.07360605 29.57389715 -8.89602219 31.71844586 -10 34 C-10.66 34 -11.32 34 -12 34 C-13.28846906 24.29046527 -14.34057669 14.81996112 -14 5 C-13.01 5.33 -12.02 5.66 -11 6 C-11 6.66 -11 7.32 -11 8 C-8.525 8.99 -8.525 8.99 -6 10 C-5.62875 8.9171875 -5.62875 8.9171875 -5.25 7.8125 C-3.89016326 4.75286734 -2.17082246 2.5326262 0 0 Z " transform="translate(204,159)" style="fill: #A4CB75;"/><path d="M0 0 C6.66499538 1.75835305 13.1189281 4.06917237 19.5625 6.5 C20.37251465 6.79656494 21.1825293 7.09312988 22.01708984 7.39868164 C22.77586426 7.6899292 23.53463867 7.98117676 24.31640625 8.28125 C25.00162354 8.53970703 25.68684082 8.79816406 26.39282227 9.06445312 C28 10 28 10 29 13 C27.0625 14.6875 27.0625 14.6875 24 16 C17.15938451 14.92189611 12.09310348 11.24661947 6.9375 6.875 C6.26267578 6.32457031 5.58785156 5.77414063 4.89257812 5.20703125 C3.23322243 3.83852514 1.61249869 2.42341781 0 1 C0 0.67 0 0.34 0 0 Z " transform="translate(112,103)" style="fill: #0E4576;"/><path d="M0 0 C0.33 0 0.66 0 1 0 C1 9.9 1 19.8 1 30 C1.99 29.67 2.98 29.34 4 29 C3.13873348 33.86071106 1.77471846 38.56668547 0.4375 43.3125 C0.20353516 44.14845703 -0.03042969 44.98441406 -0.27148438 45.84570312 C-0.84601434 47.89759586 -1.42278439 49.94886114 -2 52 C-2.33 52 -2.66 52 -3 52 C-3.3247782 34.51610713 -2.25633739 17.33924139 0 0 Z " transform="translate(83,248)" style="fill: #AACB80;"/><path d="M0 0 C5 1.66666667 10 3.33333333 15 5 C14.34 6.32 13.68 7.64 13 9 C12.34 9 11.68 9 11 9 C10.67 9.99 10.34 10.98 10 12 C8.5728627 13.16162338 7.14359701 14.32082294 5.69921875 15.4609375 C2.6394985 18.23227032 0.35772348 21.6306292 -2 25 C-3 22 -3 22 -2 19 C0.5 17 0.5 17 3 15 C3.33 14.01 3.66 13.02 4 12 C4.99 12 5.98 12 7 12 C7 11.01 7 10.02 7 9 C7.99 9 8.98 9 10 9 C10.33 7.68 10.66 6.36 11 5 C8.36 5.66 5.72 6.32 3 7 C3.33 5.68 3.66 4.36 4 3 C2.68 2.67 1.36 2.34 0 2 C0 1.34 0 0.68 0 0 Z " transform="translate(205,136)" style="fill: #204E5E;"/><path d="M0 0 C6.17047326 1.7354456 10.57877075 6.57877075 15 11 C14.01 11.495 14.01 11.495 13 12 C10.375 10.5625 10.375 10.5625 8 9 C7.34 11.64 6.68 14.28 6 17 C3.28659072 13.79677758 2.06935064 10.73725031 0.8125 6.75 C0.46832031 5.67234375 0.12414062 4.5946875 -0.23046875 3.484375 C-0.48441406 2.66453125 -0.73835937 1.8446875 -1 1 C-0.67 0.67 -0.34 0.34 0 0 Z " transform="translate(170,149)" style="fill: #F1F9F7;"/><path d="M0 0 C0.33 0 0.66 0 1 0 C1 1.65 1 3.3 1 5 C1.66 5.33 2.32 5.66 3 6 C2.34 6 1.68 6 1 6 C0.92483154 6.5576001 0.84966309 7.1152002 0.7722168 7.68969727 C-3.47651291 38.95302581 -3.47651291 38.95302581 -6 44 C-5.34 44.33 -4.68 44.66 -4 45 C-5.32 45.99 -6.64 46.98 -8 48 C-6.74656339 36.89653173 -4.99845397 25.96823309 -2.875 15 C-2.59458958 13.53133823 -2.31463993 12.06258841 -2.03515625 10.59375 C-1.36204413 7.06147572 -0.68282868 3.53041054 0 0 Z " transform="translate(100,146)" style="fill: #C0D2A5;"/><path d="M0 0 C2.85744288 1.42872144 3.18032679 3.28542726 4.4375 6.1875 C5.83136408 9.36287083 7.23910364 12.46996233 8.8125 15.5625 C10 18 10 18 10 20 C9.01 19.67 8.02 19.34 7 19 C6.67 18.01 6.34 17.02 6 16 C6 20.95 6 25.9 6 31 C5.67 31 5.34 31 5 31 C4.87882812 30.23816406 4.75765625 29.47632813 4.6328125 28.69140625 C3.85291252 23.88602252 3.06850838 19.11162909 1.9375 14.375 C0.83086558 9.62605703 0.38508509 4.85409891 0 0 Z " transform="translate(110,105)" style="fill: #1D5064;"/><path d="M0 0 C0.99 0.66 1.98 1.32 3 2 C1.42210402 3.15330947 -0.1625482 4.29737927 -1.75 5.4375 C-2.63171875 6.07558594 -3.5134375 6.71367187 -4.421875 7.37109375 C-6.75595746 8.84580948 -8.36182956 9.41770112 -11 10 C-12.08431094 11.74867483 -12.08431094 11.74867483 -13 14 C-15.16588855 17.49336862 -16.55749533 19.70499689 -20 22 C-20.99 22 -21.98 22 -23 22 C-23.28875 22.639375 -23.5775 23.27875 -23.875 23.9375 C-25 26 -25 26 -27 27 C-25.79618552 24.50638429 -24.54571278 22.31856917 -23 20 C-22.34 20 -21.68 20 -21 20 C-20.79375 19.443125 -20.5875 18.88625 -20.375 18.3125 C-19 16 -19 16 -15.9375 13.5 C-12.85427117 11.39532325 -12.85427117 11.39532325 -12.5625 8.875 C-12.376875 8.25625 -12.19125 7.6375 -12 7 C-8.5039097 5.18721244 -5.96018245 4 -2 4 C-1.34 2.68 -0.68 1.36 0 0 Z " transform="translate(232,132)" style="fill: #A4C687;"/><path d="M0 0 C0.33 0 0.66 0 1 0 C1.2578125 7.734375 1.2578125 7.734375 -1 12 C-2.06847168 12.03963867 -3.13694336 12.07927734 -4.23779297 12.12011719 C-8.24566466 12.27359342 -12.25221091 12.45079779 -16.25878906 12.63476562 C-17.9847576 12.71078813 -19.71101307 12.78058584 -21.4375 12.84375 C-34.25301682 13.19149595 -34.25301682 13.19149595 -46.28955078 17.26660156 C-46.85399902 17.50862305 -47.41844727 17.75064453 -48 18 C-48.66 17.67 -49.32 17.34 -50 17 C-40.63269205 9.7943785 -29.22302266 10.60657212 -17.9375 10.375 C-16.38865172 10.33674483 -14.83982301 10.29768894 -13.29101562 10.2578125 C-9.52750579 10.16263921 -5.76389683 10.07831503 -2 10 C-1.34 6.7 -0.68 3.4 0 0 Z " transform="translate(194,190)" style="fill: #CDE4BA;"/><path d="M0 0 C4.25491665 0.47276852 6.22542845 2.92547477 9 6 C9.33 6.66 9.66 7.32 10 8 C9.34 8 8.68 8 8 8 C8.30755545 12.18308636 8.30755545 12.18308636 10.5625 15.5 C12 17 12 17 12.1875 20.1875 C12.125625 21.115625 12.06375 22.04375 12 23 C12.66 23 13.32 23 14 23 C14.66 24.98 15.32 26.96 16 29 C15.34 29.33 14.68 29.66 14 30 C9.95162342 21.35490765 5.9257244 12.70172089 2 4 C1.34 4 0.68 4 0 4 C0 2.68 0 1.36 0 0 Z " transform="translate(109,102)" style="fill: #90C07E;"/><path d="M0 0 C2.97 0.495 2.97 0.495 6 1 C6 1.66 6 2.32 6 3 C7.98 3 9.96 3 12 3 C12 3.33 12 3.66 12 4 C12.61488281 4.13277344 13.22976562 4.26554687 13.86328125 4.40234375 C15.07564453 4.66724609 15.07564453 4.66724609 16.3125 4.9375 C17.11300781 5.11152344 17.91351563 5.28554687 18.73828125 5.46484375 C21 6 21 6 24 7 C24 7.66 24 8.32 24 9 C24.99 9 25.98 9 27 9 C27.33 9.99 27.66 10.98 28 12 C18.12550449 9.24809142 8.58969974 5.59872163 -1 2 C-0.67 1.34 -0.34 0.68 0 0 Z " transform="translate(115,102)" style="fill: #8BBB7C;"/><path d="M0 0 C0 0.66 0 1.32 0 2 C-1.11375 2.6496875 -1.11375 2.6496875 -2.25 3.3125 C-5.27062968 5.16606821 -6.83372426 7.23613095 -9 10 C-9.66 10 -10.32 10 -11 10 C-10.67 10.99 -10.34 11.98 -10 13 C-10.680625 13.37125 -11.36125 13.7425 -12.0625 14.125 C-15.10653999 16.06800425 -17.61515683 18.24548047 -20.25390625 20.6953125 C-22.16779623 22.12537794 -23.66725161 22.58143245 -26 23 C-25.67 22.34 -25.34 21.68 -25 21 C-24.34 21 -23.68 21 -23 21 C-22.67 20.01 -22.34 19.02 -22 18 C-21.34 18 -20.68 18 -20 18 C-19.76796875 17.43152344 -19.5359375 16.86304688 -19.296875 16.27734375 C-17.67760452 13.43386577 -15.71122696 11.71420902 -13.25 9.5625 C-12.35796875 8.78132812 -11.4659375 8.00015625 -10.546875 7.1953125 C-9.70640625 6.47085938 -8.8659375 5.74640625 -8 5 C-7.36578125 4.44054687 -6.7315625 3.88109375 -6.078125 3.3046875 C-2.26357143 0 -2.26357143 0 0 0 Z " transform="translate(140,211)" style="fill: #EDF8DD;"/><path d="M0 0 C6.10737442 1.76463072 12.07433507 3.69557475 18 6 C18 6.33 18 6.66 18 7 C16.02 7.33 14.04 7.66 12 8 C12.99 8.66 13.98 9.32 15 10 C15.33 9.34 15.66 8.68 16 8 C16.66 9.98 17.32 11.96 18 14 C15.26460702 12.71277826 12.92322624 11.29913102 10.546875 9.43359375 C9.928125 8.94826172 9.309375 8.46292969 8.671875 7.96289062 C8.03765625 7.45951172 7.4034375 6.95613281 6.75 6.4375 C6.1003125 5.93025391 5.450625 5.42300781 4.78125 4.90039062 C3.16643491 3.62651864 1.58041476 2.31630802 0 1 C0 0.67 0 0.34 0 0 Z " transform="translate(112,103)" style="fill: #20515B;"/><path d="M0 0 C0 0.99 0 1.98 0 3 C0.66 3 1.32 3 2 3 C2 3.66 2 4.32 2 5 C5.465 4.505 5.465 4.505 9 4 C9.33 4.99 9.66 5.98 10 7 C10.66 7.66 11.32 8.32 12 9 C11.67 9.66 11.34 10.32 11 11 C11.66 11.33 12.32 11.66 13 12 C12.01 12.33 11.02 12.66 10 13 C7.8356478 11.65804226 5.92599356 10.31698055 3.9375 8.75 C3.39544922 8.34136719 2.85339844 7.93273437 2.29492188 7.51171875 C-0.34241589 5.48400047 -2.1377321 3.79340186 -4 1 C-2 0 -2 0 0 0 Z " transform="translate(163,138)" style="fill: #144777;"/><path d="M0 0 C1.99097846 2.98646769 2.94124926 5.59687262 4 9 C3.34 9 2.68 9 2 9 C2 9.66 2 10.32 2 11 C0.96875 11.433125 -0.0625 11.86625 -1.125 12.3125 C-4.48396666 13.74912525 -7.74776178 15.33421945 -11 17 C-10.42415568 14.61435923 -9.77772405 12.33317216 -9 10 C-8.0925 10.020625 -7.185 10.04125 -6.25 10.0625 C-3.54501751 10.01048111 -1.56521977 9.70822372 1 9 C0.76603516 8.15115234 0.76603516 8.15115234 0.52734375 7.28515625 C0.33269531 6.55167969 0.13804687 5.81820312 -0.0625 5.0625 C-0.25972656 4.33160156 -0.45695313 3.60070312 -0.66015625 2.84765625 C-0.77230469 2.23792969 -0.88445312 1.62820312 -1 1 C-0.67 0.67 -0.34 0.34 0 0 Z " transform="translate(152,192)" style="fill: #154966;"/><path d="M0 0 C2.475 0.495 2.475 0.495 5 1 C5.144375 1.94875 5.28875 2.8975 5.4375 3.875 C5.82935399 6.8934494 5.82935399 6.8934494 7 9 C7.515625 8.835 8.03125 8.67 8.5625 8.5 C11.73363876 7.84951 14.77218334 7.9379266 18 8 C17.67 8.99 17.34 9.98 17 11 C12.38 11.33 7.76 11.66 3 12 C3.66 11.67 4.32 11.34 5 11 C3.35 7.37 1.7 3.74 0 0 Z " transform="translate(151,190)" style="fill: #9BC47A;"/><path d="M0 0 C9.01470449 0.53160742 18.01236323 1.10504464 27 2 C23.89914429 4.06723714 23.27068319 4.24497423 19.76953125 4.1953125 C18.96708984 4.18886719 18.16464844 4.18242188 17.33789062 4.17578125 C16.50451172 4.15902344 15.67113281 4.14226562 14.8125 4.125 C13.96751953 4.11597656 13.12253906 4.10695313 12.25195312 4.09765625 C10.16784757 4.07410703 8.08388783 4.03823647 6 4 C6.33 3.01 6.66 2.02 7 1 C4.69 1 2.38 1 0 1 C0 0.67 0 0.34 0 0 Z " transform="translate(264,104)" style="fill: #AACB7B;"/><path d="M0 0 C-1.57111789 2.15578963 -3.15564548 4.29900483 -4.75 6.4375 C-5.1934375 7.04916016 -5.636875 7.66082031 -6.09375 8.29101562 C-8.54647631 11.55530579 -9.95928623 13.30526761 -14 14 C-12.66439842 10.25234185 -11.0073532 7.3836183 -8.5625 4.25 C-7.96566406 3.47140625 -7.36882812 2.6928125 -6.75390625 1.890625 C-4.51676243 -0.52090643 -3.09784567 -1.54892283 0 0 Z " transform="translate(118,234)" style="fill: #EFFAE2;"/><path d="M0 0 C0.99 0.33 1.98 0.66 3 1 C4 4 4 4 3.0625 6.1875 C2.711875 6.785625 2.36125 7.38375 2 8 C3.32 8 4.64 8 6 8 C5.67 9.32 5.34 10.64 5 12 C3.82780457 11.21654285 2.66236332 10.42297164 1.5 9.625 C0.8503125 9.18414062 0.200625 8.74328125 -0.46875 8.2890625 C-0.9740625 7.86367187 -1.479375 7.43828125 -2 7 C-2 6.34 -2 5.68 -2 5 C-3.2065625 4.566875 -3.2065625 4.566875 -4.4375 4.125 C-7 3 -7 3 -8 1 C-6.576875 1.309375 -6.576875 1.309375 -5.125 1.625 C-4.09375 1.74875 -3.0625 1.8725 -2 2 C-1.34 1.34 -0.68 0.68 0 0 Z " transform="translate(138,116)" style="fill: #144C6A;"/><path d="M0 0 C7.26 0.66 14.52 1.32 22 2 C22 2.66 22 3.32 22 4 C17.32798795 5.20568053 12.78503708 5.09382426 8 5 C8 4.34 8 3.68 8 3 C5.36 2.67 2.72 2.34 0 2 C0 1.34 0 0.68 0 0 Z " transform="translate(304,108)" style="fill: #A6C879;"/><path d="M0 0 C3 1 3 1 5 3 C6.155 3 7.31 3 8.5 3 C12 3 12 3 14 5 C10.12315913 6.19287411 7.08378077 7 3 7 C2.67 7.66 2.34 8.32 2 9 C1.34 6.03 0.68 3.06 0 0 Z " transform="translate(155,192)" style="fill: #9DCD64;"/><path d="M0 0 C0.33 0 0.66 0 1 0 C1.33 11.22 1.66 22.44 2 34 C-1.08669204 30.91330796 -1.44855089 30.08072342 -2 26 C-1.34 26 -0.68 26 0 26 C0 17.42 0 8.84 0 0 Z " transform="translate(189,163)" style="fill: #E1F3CE;"/><path d="M0 0 C0.33 1.32 0.66 2.64 1 4 C1.66 4 2.32 4 3 4 C2.67 8.62 2.34 13.24 2 18 C1.34 18 0.68 18 0 18 C-0.88809097 14.19389583 -1.1346183 10.65502933 -1.125 6.75 C-1.12757813 5.69296875 -1.13015625 4.6359375 -1.1328125 3.546875 C-1 1 -1 1 0 0 Z " transform="translate(192,175)" style="fill: #9FC969;"/><path d="M0 0 C4.04704581 0.72404774 7.89070402 1.83446287 11.8125 3.0625 C13.55466797 3.60583984 13.55466797 3.60583984 15.33203125 4.16015625 C16.65267578 4.57587891 16.65267578 4.57587891 18 5 C17.67 5.99 17.34 6.98 17 8 C16.34 8 15.68 8 15 8 C15 7.34 15 6.68 15 6 C13.700625 5.855625 12.40125 5.71125 11.0625 5.5625 C7.125 5.125 7.125 5.125 6 4 C3.54207971 3.66656449 3.54207971 3.66656449 1 4 C0.34 4.99 -0.32 5.98 -1 7 C-0.67 4.69 -0.34 2.38 0 0 Z " transform="translate(101,152)" style="fill: #F1FCE3;"/><path d="M0 0 C3.40755272 1.92880342 6.74147635 3.8276509 10 6 C10 6.66 10 7.32 10 8 C5.17639811 8.19294408 1.50353262 7.75747614 -3 6 C-1.68 5.01 -0.36 4.02 1 3 C0.67 2.01 0.34 1.02 0 0 Z " transform="translate(178,190)" style="fill: #E9F6D7;"/><path d="M0 0 C0.99 0 1.98 0 3 0 C3.99 1.32 4.98 2.64 6 4 C4.02 7.96 2.04 11.92 0 16 C-1 12 -1 12 0 9.6875 C1.31081719 6.16467879 0.71277118 3.63513303 0 0 Z " transform="translate(90,256)" style="fill: #A4C977;"/><path d="M0 0 C2.44814179 3.0296652 4.09452853 6.07549599 5.6875 9.625 C6.34298828 11.06746094 6.34298828 11.06746094 7.01171875 12.5390625 C8 15 8 15 8 17 C7.01 17 6.02 17 5 17 C5 16.34 5 15.68 5 15 C4.34 14.67 3.68 14.34 3 14 C3 11.69 3 9.38 3 7 C2.34 7 1.68 7 1 7 C0.67 4.69 0.34 2.38 0 0 Z " transform="translate(128,142)" style="fill: #245864;"/><path d="M0 0 C0 0.33 0 0.66 0 1 C-1.07378906 1.06058594 -2.14757812 1.12117187 -3.25390625 1.18359375 C-4.69011315 1.26807651 -6.12631058 1.35272054 -7.5625 1.4375 C-8.26697266 1.47681641 -8.97144531 1.51613281 -9.69726562 1.55664062 C-14.1798541 1.82518279 -18.56293497 2.30616197 -23 3 C-23.33 2.34 -23.66 1.68 -24 1 C-15.78524426 -1.17506535 -8.37458158 -1.71786289 0 0 Z " transform="translate(122,188)" style="fill: #ACCB80;"/><path d="M0 0 C7 8.75 7 8.75 7 13 C5.68 12.67 4.36 12.34 3 12 C3.33 11.34 3.66 10.68 4 10 C1.525 9.01 1.525 9.01 -1 8 C-1 5.16032769 -0.59732819 2.76264289 0 0 Z " transform="translate(184,186)" style="fill: #B4CE89;"/><path d="M0 0 C2.34917898 2.15341406 3.82443004 4.21667937 5.25 7.0625 C5.78367187 8.10083984 5.78367187 8.10083984 6.328125 9.16015625 C6.54984375 9.76730469 6.7715625 10.37445313 7 11 C6.67 11.66 6.34 12.32 6 13 C4.35 11.35 2.7 9.7 1 8 C0.01 8.495 0.01 8.495 -1 9 C-1.09765625 2.84765625 -1.09765625 2.84765625 -1 1 C-0.67 0.67 -0.34 0.34 0 0 Z " transform="translate(119,125)" style="fill: #144B64;"/><path d="M0 0 C0.33 0 0.66 0 1 0 C1.50505263 2.89503383 2.0042022 5.79087953 2.5 8.6875 C2.64308594 9.50412109 2.78617187 10.32074219 2.93359375 11.16210938 C3.61165962 15.14978248 4.19858392 18.93730404 4 23 C3.34 22.67 2.68 22.34 2 22 C1.40234375 19.5234375 1.40234375 19.5234375 0.9375 16.375 C0.77507812 15.29089844 0.61265625 14.20679688 0.4453125 13.08984375 C0.29835938 12.07019531 0.15140625 11.05054688 0 10 C-0.12632813 9.25878906 -0.25265625 8.51757812 -0.3828125 7.75390625 C-0.90036204 4.66851476 -1.01092027 3.03276082 0 0 Z " transform="translate(125,192)" style="fill: #89BD7F;"/><path d="M0 0 C2.97 1.65 5.94 3.3 9 5 C9 5.66 9 6.32 9 7 C9.804375 7.28875 10.60875 7.5775 11.4375 7.875 C14 9 14 9 15 11 C13.51882199 10.71872579 12.04006751 10.42466268 10.5625 10.125 C9.73878906 9.96257812 8.91507813 9.80015625 8.06640625 9.6328125 C7.38449219 9.42398438 6.70257813 9.21515625 6 9 C5.67 8.34 5.34 7.68 5 7 C5.33 6.34 5.66 5.68 6 5 C4.68 5 3.36 5 2 5 C2 4.01 2 3.02 2 2 C1.34 2 0.68 2 0 2 C0 1.34 0 0.68 0 0 Z " transform="translate(127,116)" style="fill: #89BD7B;"/><path d="M0 0 C3.35409194 -0.05859857 6.70805017 -0.09379582 10.0625 -0.125 C11.47692383 -0.15013672 11.47692383 -0.15013672 12.91992188 -0.17578125 C18.36523938 -0.21372771 22.85499388 0.18747357 28 2 C28 2.33 28 2.66 28 3 C18.65586912 2.4426724 9.32480419 1.83004886 0 1 C0 0.67 0 0.34 0 0 Z " transform="translate(260,103)" style="fill: #EBF8DA;"/><path d="M0 0 C1.485 0.99 1.485 0.99 3 2 C4.65549531 2.38499891 6.3222433 2.72793135 8 3 C4.38671875 7.6875 4.38671875 7.6875 3 9 C2.01 9 1.02 9 0 9 C0 6.03 0 3.06 0 0 Z " transform="translate(129,208)" style="fill: #205162;"/><path d="M0 0 C5.31427203 2.70923672 8.42148591 5.22864787 12 10 C10.35 9.67 8.7 9.34 7 9 C7 8.34 7 7.68 7 7 C5.35 6.67 3.7 6.34 2 6 C1.34 4.02 0.68 2.04 0 0 Z " transform="translate(152,135)" style="fill: #96C67B;"/><path d="M0 0 C2 3 2 3 1.86328125 5.05078125 C0.72716629 9.71610437 -0.61928582 13.77964305 -3 18 C-4.63129887 13.93714243 -3.29968777 10.79897816 -2.0625 6.75 C-1.68222656 5.48671875 -1.30195312 4.2234375 -0.91015625 2.921875 C-0.60980469 1.95765625 -0.30945313 0.9934375 0 0 Z " transform="translate(85,282)" style="fill: #E9F5D8;"/><path d="M0 0 C6.08233706 0.67581523 12.01314152 1.73638028 18 3 C18 3.33 18 3.66 18 4 C12.84828377 4.09038099 8.08086796 3.84681133 3 3 C2.67 3.66 2.34 4.32 2 5 C1.34 3.35 0.68 1.7 0 0 Z " transform="translate(157,192)" style="fill: #A7CA77;"/><path d="M0 0 C-4.89839001 3.89359206 -8.7950962 4.7242265 -15 5 C-10.87384475 1.53402959 -5.43913747 -2.39322049 0 0 Z " transform="translate(250,129)" style="fill: #EDF9DE;"/><path d="M0 0 C2.53408774 1.26704387 2.93209972 2.43123157 4.1875 4.9375 C4.55230469 5.64777344 4.91710937 6.35804687 5.29296875 7.08984375 C5.52628906 7.72019531 5.75960937 8.35054687 6 9 C5.67 9.66 5.34 10.32 5 11 C4.34 10.67 3.68 10.34 3 10 C3 12.31 3 14.62 3 17 C2.67 17 2.34 17 2 17 C1.34 11.39 0.68 5.78 0 0 Z " transform="translate(110,105)" style="fill: #396A5F;"/><path d="M0 0 C0.33 0.66 0.66 1.32 1 2 C3.34386809 2.91031272 3.34386809 2.91031272 6.0625 3.625 C6.98160156 3.88539063 7.90070313 4.14578125 8.84765625 4.4140625 C9.55792969 4.60742188 10.26820313 4.80078125 11 5 C11 4.34 11 3.68 11 3 C11.66 3.33 12.32 3.66 13 4 C12.01 5.65 11.02 7.3 10 9 C7.525 8.01 7.525 8.01 5 7 C5 6.34 5 5.68 5 5 C2.525 4.01 2.525 4.01 0 3 C0 2.01 0 1.02 0 0 Z " transform="translate(188,160)" style="fill: #2C5960;"/><path d="M0 0 C8.05293006 -0.4026465 8.05293006 -0.4026465 12 3 C14.64934822 3.71433121 14.64934822 3.71433121 17 4 C17 4.66 17 5.32 17 6 C11.07136283 4.83348574 5.61201606 3.24480642 0 1 C0 0.67 0 0.34 0 0 Z " transform="translate(203,135)" style="fill: #8ABD7F;"/><path d="M0 0 C2.99332739 0.9977758 3.94766315 1.7522025 6 4 C5.34 6.31 4.68 8.62 4 11 C0.85041169 7.57653445 0.43820891 4.55737263 0 0 Z " transform="translate(116,109)" style="fill: #9DCB65;"/><path d="M0 0 C-2.93163286 1.55403686 -5.83365224 2.69801632 -9 3.6875 C-9.845625 3.95949219 -10.69125 4.23148437 -11.5625 4.51171875 C-14.1232068 5.02468085 -15.55828998 4.84216387 -18 4 C-11.70185861 0.6312267 -7.11871364 -0.13958262 0 0 Z " transform="translate(292,116)" style="fill: #AACC7D;"/><path d="M0 0 C-5.37330889 3.39366878 -9.86946489 3.32712342 -16 3 C-13.37109503 1.60926232 -10.87877953 0.56030796 -8 -0.1875 C-7.34 -0.36667969 -6.68 -0.54585938 -6 -0.73046875 C-3.73459024 -1.03576811 -2.164908 -0.68136613 0 0 Z " transform="translate(272,123)" style="fill: #EBF8DA;"/><path d="M0 0 C0.66 0.99 1.32 1.98 2 3 C1.34 3 0.68 3 0 3 C0.0928125 4.5778125 0.0928125 4.5778125 0.1875 6.1875 C-0.0077786 10.15816493 -0.70325068 11.84196969 -3 15 C-4.43410153 11.21180727 -3.51009497 8.93478721 -2.0625 5.25 C-1.68222656 4.26515625 -1.30195313 3.2803125 -0.91015625 2.265625 C-0.60980469 1.51796875 -0.30945313 0.7703125 0 0 Z " transform="translate(196,109)" style="fill: #B2CE8B;"/><path d="M0 0 C0 0.66 0 1.32 0 2 C-1.11375 2.6496875 -1.11375 2.6496875 -2.25 3.3125 C-5.13090059 4.85943899 -5.13090059 4.85943899 -7 7.5625 C-9.19159106 10.23350161 -10.74207599 11.00452322 -14 12 C-4.24783862 0 -4.24783862 0 0 0 Z " transform="translate(140,211)" style="fill: #C4DBBE;"/><path d="M0 0 C0.66 0.33 1.32 0.66 2 1 C1.79503906 1.58007812 1.59007812 2.16015625 1.37890625 2.7578125 C-0.14009813 7.1621984 -1.4047151 11.35677777 -2 16 C-2.66 16 -3.32 16 -4 16 C-3.47606294 10.13190493 -2.23891142 5.45126259 0 0 Z " transform="translate(200,167)" style="fill: #EDF9DB;"/><path d="M0 0 C1 2 1 2 0.25 5.0625 C-0.1625 6.031875 -0.575 7.00125 -1 8 C-1.99 8.33 -2.98 8.66 -4 9 C-4.33 10.65 -4.66 12.3 -5 14 C-5.33 14 -5.66 14 -6 14 C-6.48792229 10.74718472 -6.40014561 8.65286916 -4.6640625 5.8203125 C-3.15782398 3.8332091 -1.61782175 1.8970886 0 0 Z " transform="translate(204,159)" style="fill: #BEDAB8;"/><path d="M0 0 C3.91402949 1.26941497 5.79072873 2.51167694 8 6 C6.68 6.33 5.36 6.66 4 7 C3.34 6.01 2.68 5.02 2 4 C1.01 4.495 1.01 4.495 0 5 C-0.5625 3.0625 -0.5625 3.0625 -1 1 C-0.67 0.67 -0.34 0.34 0 0 Z " transform="translate(170,149)" style="fill: #DEEDEF;"/><path d="M0 0 C1.98 0.99 1.98 0.99 4 2 C3.67 2.66 3.34 3.32 3 4 C3.60760482 6.3494053 4.27129528 8.68529088 5 11 C3.68 10.67 2.36 10.34 1 10 C0.67 6.7 0.34 3.4 0 0 Z " transform="translate(167,147)" style="fill: #ABCC8B;"/><path d="M0 0 C-4.625 4 -4.625 4 -8 4 C-8.28875 4.639375 -8.5775 5.27875 -8.875 5.9375 C-10 8 -10 8 -12 9 C-9.48502166 3.79040202 -6.54430493 -2.18143498 0 0 Z " transform="translate(217,150)" style="fill: #BDD6C0;"/><path d="M0 0 C1.65 0 3.3 0 5 0 C2 3 -1 6 -4 9 C-4 5 -4 5 -2.5625 3.375 C-2.046875 2.92125 -1.53125 2.4675 -1 2 C-0.67 1.34 -0.34 0.68 0 0 Z " transform="translate(123,220)" style="fill: #A5C87D;"/><path d="M0 0 C3 1 3 1 4.16796875 3.28515625 C4.50441406 4.20167969 4.84085938 5.11820313 5.1875 6.0625 C5.53167969 6.98160156 5.87585938 7.90070313 6.23046875 8.84765625 C6.48441406 9.55792969 6.73835937 10.26820313 7 11 C6.01 11.33 5.02 11.66 4 12 C3.3291288 10.3767313 2.66342971 8.75132422 2 7.125 C1.62875 6.22007812 1.2575 5.31515625 0.875 4.3828125 C0 2 0 2 0 0 Z " transform="translate(135,155)" style="fill: #8BBB83;"/><path d="M0 0 C0.69867188 0.08378906 1.39734375 0.16757813 2.1171875 0.25390625 C3.02726563 0.35574219 3.93734375 0.45757812 4.875 0.5625 C5.77992188 0.66691406 6.68484375 0.77132812 7.6171875 0.87890625 C10.01653057 1.19674852 10.01653057 1.19674852 12 0 C12 1.32 12 2.64 12 4 C7.6822542 3.49202991 3.96697886 2.80317221 0 1 C0 0.67 0 0.34 0 0 Z " transform="translate(150,116)" style="fill: #88B57D;"/><path d="M0 0 C-1.31224548 3.93673644 -2.91910327 6.22719294 -6 9 C-5.6875 5.625 -5.6875 5.625 -5 2 C-2 0 -2 0 0 0 Z " transform="translate(113,233)" style="fill: #A4C877;"/><path d="M0 0 C2 3.75 2 3.75 2 6 C1.34 6 0.68 6 0 6 C-0.33 9.96 -0.66 13.92 -1 18 C-1.33 18 -1.66 18 -2 18 C-2.23268915 11.71739294 -1.40454548 6.11980533 0 0 Z " transform="translate(87,220)" style="fill: #B8D594;"/><path d="M0 0 C6.93 0.495 6.93 0.495 14 1 C14.33 1.99 14.66 2.98 15 4 C13.06115111 3.71743908 11.12394039 3.4236207 9.1875 3.125 C8.10855469 2.96257812 7.02960938 2.80015625 5.91796875 2.6328125 C3 2 3 2 0 0 Z " transform="translate(153,190)" style="fill: #E2F2D2;"/><path d="M0 0 C1.98 0.66 3.96 1.32 6 2 C5.67 4.31 5.34 6.62 5 9 C4.34 9 3.68 9 3 9 C0 3.375 0 3.375 0 0 Z " transform="translate(141,167)" style="fill: #E0F1E7;"/><path d="M0 0 C0.99 0.33 1.98 0.66 3 1 C3 3.31 3 5.62 3 8 C2.01 8 1.02 8 0 8 C0 5.36 0 2.72 0 0 Z " transform="translate(123,160)" style="fill: #07487F;"/><path d="M0 0 C0 0.99 0 1.98 0 3 C0.66 3 1.32 3 2 3 C2 3.66 2 4.32 2 5 C2.66 5 3.32 5 4 5 C4.33 5.99 4.66 6.98 5 8 C0.58110387 6.64978174 -1.34345343 4.73884332 -4 1 C-2 0 -2 0 0 0 Z " transform="translate(163,138)" style="fill: #24585F;"/><path d="M0 0 C10.55808656 -0.3690205 10.55808656 -0.3690205 15 2 C15 2.33 15 2.66 15 3 C10.91281305 3.24042276 7.82320557 2.42258812 4 1 C4 1.66 4 2.32 4 3 C2.68 2.34 1.36 1.68 0 1 C0 0.67 0 0.34 0 0 Z " transform="translate(123,110)" style="fill: #124564;"/><path d="M0 0 C1.99097846 2.98646769 2.94124926 5.59687262 4 9 C3.34 9 2.68 9 2 9 C2 9.66 2 10.32 2 11 C1.34 10.67 0.68 10.34 0 10 C-0.44921875 7.96875 -0.44921875 7.96875 -0.6875 5.5 C-0.77386719 4.6853125 -0.86023438 3.870625 -0.94921875 3.03125 C-0.96597656 2.3609375 -0.98273438 1.690625 -1 1 C-0.67 0.67 -0.34 0.34 0 0 Z " transform="translate(152,192)" style="fill: #285765;"/><path d="M0 0 C2.475 0.495 2.475 0.495 5 1 C5 1.99 5 2.98 5 4 C5.99 4.33 6.98 4.66 8 5 C6.35 5.66 4.7 6.32 3 7 C3.33 5.68 3.66 4.36 4 3 C2.68 2.67 1.36 2.34 0 2 C0 1.34 0 0.68 0 0 Z " transform="translate(205,136)" style="fill: #194D66;"/><path d="M0 0 C1.48285242 0.95262034 2.96118201 1.91228405 4.4375 2.875 C5.67306641 3.67550781 5.67306641 3.67550781 6.93359375 4.4921875 C9 6 9 6 10 8 C9.01 8 8.02 8 7 8 C7 7.34 7 6.68 7 6 C6.401875 5.896875 5.80375 5.79375 5.1875 5.6875 C2.68741714 4.90175967 1.62464918 4.03081147 0 2 C0 1.34 0 0.68 0 0 Z " transform="translate(142,127)" style="fill: #8FC281;"/><path d="M0 0 C-3.84700632 2.08379509 -7.90054429 3.49686624 -12 5 C-12 4.34 -12 3.68 -12 3 C-8.02806853 -0.12940055 -4.95769796 -0.29162929 0 0 Z " transform="translate(250,127)" style="fill: #AAC97E;"/><path d="M0 0 C0.33 0 0.66 0 1 0 C1.125 5.75 1.125 5.75 0 8 C0.66 8.33 1.32 8.66 2 9 C0.68 9.99 -0.64 10.98 -2 12 C-1.85831863 10.56208484 -1.71148957 9.1246763 -1.5625 7.6875 C-1.48128906 6.88699219 -1.40007812 6.08648437 -1.31640625 5.26171875 C-1 3 -1 3 0 0 Z " transform="translate(94,182)" style="fill: #B7CF96;"/><path d="M0 0 C0.99 0.33 1.98 0.66 3 1 C2.855625 1.515625 2.71125 2.03125 2.5625 2.5625 C1.84190099 5.68509571 1.42733561 8.82550692 1 12 C0.67 12 0.34 12 0 12 C0 8.04 0 4.08 0 0 Z " transform="translate(190,164)" style="fill: #9CC379;"/><path d="M0 0 C2.64 0 5.28 0 8 0 C8 0.66 8 1.32 8 2 C5.36 2.33 2.72 2.66 0 3 C0 2.01 0 1.02 0 0 Z " transform="translate(318,110)" style="fill: #AFC785;"/><path d="M0 0 C4 4.75 4 4.75 4 7 C2.68 6.67 1.36 6.34 0 6 C0.33 5.34 0.66 4.68 1 4 C0.01 3.67 -0.98 3.34 -2 3 C-1.34 2.67 -0.68 2.34 0 2 C0 1.34 0 0.68 0 0 Z " transform="translate(187,192)" style="fill: #BBD59B;"/><path d="M0 0 C0.2475 0.639375 0.495 1.27875 0.75 1.9375 C1.81562433 4.18741541 1.81562433 4.18741541 4.125 4.75 C4.74375 4.8325 5.3625 4.915 6 5 C3.69 5.33 1.38 5.66 -1 6 C-0.67 4.02 -0.34 2.04 0 0 Z " transform="translate(95,184)" style="fill: #E9FAD8;"/><path d="M0 0 C1.98 0.99 1.98 0.99 4 2 C3.67 3.32 3.34 4.64 3 6 C2.01 5.34 1.02 4.68 0 4 C0 2.68 0 1.36 0 0 Z " transform="translate(178,182)" style="fill: #9DCE5C;"/><path d="M0 0 C2.58949269 1.29474635 2.96035764 2.32663393 4 5 C4.125 7.75 4.125 7.75 4 10 C1.16625119 6.79663178 0.4794463 4.21912747 0 0 Z " transform="translate(172,156)" style="fill: #EFFDDF;"/><path d="M0 0 C0.66 0 1.32 0 2 0 C2 0.66 2 1.32 2 2 C2.969375 2.12375 3.93875 2.2475 4.9375 2.375 C6.4534375 2.684375 6.4534375 2.684375 8 3 C8.33 3.66 8.66 4.32 9 5 C4.545 4.01 4.545 4.01 0 3 C0 2.01 0 1.02 0 0 Z " transform="translate(133,122)" style="fill: #90C273;"/></svg>